<svg width="456" height="31" viewBox="0 0 456 31" fill="none" xmlns="http://www.w3.org/2000/svg">
<g clip-path="url(#clip0_314_413)">
<path d="M139.77 23.2343C144.033 23.2343 146.578 20.6705 146.578 16.3766V1.4071H148.744V17.037C148.744 21.878 145.644 25.3771 140.039 25.3771H135V23.2352H139.77V23.2343ZM144.717 1.4071V16.6167C144.717 19.1104 143.063 21.3385 139.979 21.3385H135V19.1966H139.53C141.561 19.1966 142.551 18.0576 142.551 16.0164V1.40625H144.717V1.4071Z" fill="white"/>
<path d="M164.374 23.2343V25.3762H159.335C153.731 25.3762 150.631 21.8772 150.631 17.0361V1.40625H152.797V16.3757C152.797 20.6697 155.342 23.2335 159.605 23.2335H164.375L164.374 23.2343ZM156.823 1.4071V16.0172C156.823 18.0585 157.813 19.1975 159.844 19.1975H164.374V21.3394H159.395C156.312 21.3394 154.657 19.1104 154.657 16.6176V1.40794H156.823V1.4071Z" fill="white"/>
<path d="M175.843 11.8492L173.965 8.13112H171.868V11.8492H169.867V1.40698H174.013C176.351 1.40698 177.803 2.7075 177.803 4.80118C177.803 6.20064 177.106 7.22718 175.876 7.77005L177.977 11.8492H175.844H175.843ZM171.868 6.56001H173.885C175.08 6.56001 175.852 5.87001 175.852 4.80118C175.852 3.73236 175.077 3.04235 173.877 3.04235H171.867V6.56001H171.868Z" fill="white"/>
<path d="M190.184 11.856C188.291 11.856 187.027 10.3542 187.027 8.11935C187.027 5.88445 188.32 4.34717 190.17 4.34717C191.071 4.34717 191.93 4.71246 192.5 5.82949H192.507V4.50445H194.386V11.6522C194.386 14.3632 192.441 14.9323 190.81 14.9323C188.912 14.9323 187.677 14.1129 187.414 12.683H189.252C189.437 13.2504 190.004 13.5751 190.811 13.5751C191.905 13.5751 192.507 12.9527 192.507 11.823V10.2883H192.5C191.995 11.5051 191.123 11.856 190.184 11.856ZM190.725 5.82526C189.63 5.82526 188.951 6.69368 188.951 8.0906C188.951 9.48751 189.631 10.3635 190.725 10.3635C191.82 10.3635 192.586 9.45031 192.586 8.0906C192.586 6.73089 191.838 5.82526 190.725 5.82526Z" fill="white"/>
<path d="M203.246 12.02C201.021 12.02 199.527 10.4785 199.527 8.18358C199.527 5.88865 201.021 4.33276 203.246 4.33276C205.47 4.33276 206.971 5.8802 206.971 8.18358C206.971 10.487 205.474 12.02 203.246 12.02ZM203.246 5.84722C202.155 5.84722 201.449 6.76468 201.449 8.18443C201.449 9.60418 202.154 10.5073 203.246 10.5073C204.337 10.5073 205.049 9.61771 205.049 8.18443C205.049 6.75115 204.341 5.84722 203.246 5.84722Z" fill="white"/>
<path d="M213.375 11.8492V7.61284C213.375 6.56769 212.837 5.96817 211.898 5.96817C210.902 5.96817 210.33 6.61927 210.33 7.75574V11.8492H208.422V4.50445H210.294V5.8557C210.871 4.87228 211.634 4.34717 212.739 4.34717C214.327 4.34717 215.276 5.4236 215.276 7.22725V11.8492H213.375Z" fill="white"/>
<path d="M182.365 12.02C180.174 12.02 178.703 10.4785 178.703 8.18358C178.703 5.88865 180.178 4.33276 182.294 4.33276C184.41 4.33276 185.899 5.86328 185.899 8.14046V8.60807H180.552C180.561 9.94326 181.333 10.6341 182.429 10.6341C183.227 10.6341 183.838 10.2739 184.069 9.67098H185.798C185.479 11.0552 184.072 12.02 182.365 12.02ZM182.337 5.70431C181.397 5.70431 180.659 6.29623 180.558 7.45891H184.123C184.031 6.27931 183.265 5.70431 182.337 5.70431Z" fill="white"/>
<path d="M198.076 4.50439H196.168V11.8492H198.076V4.50439Z" fill="white"/>
<path d="M198.093 1.40698H196.156V3.1489H198.093V1.40698Z" fill="white"/>
<path d="M182.2 25.377C180.598 25.377 179.883 24.7902 179.883 23.4744V19.4891H178.588V18.0322H179.883V15.9766H181.791V18.0322H183.328V19.4891H181.791V23.1463C181.791 23.7179 182.008 23.92 182.62 23.92H183.328V25.377H182.2Z" fill="white"/>
<path d="M187.962 25.5479C185.738 25.5479 184.244 24.0064 184.244 21.7114C184.244 19.4165 185.738 17.8606 187.962 17.8606C190.187 17.8606 191.688 19.408 191.688 21.7114C191.688 24.0148 190.191 25.5479 187.962 25.5479ZM187.962 19.3742C186.871 19.3742 186.166 20.2917 186.166 21.7114C186.166 23.1312 186.871 24.0343 187.962 24.0343C189.054 24.0343 189.766 23.1447 189.766 21.7114C189.766 20.2781 189.058 19.3742 187.962 19.3742Z" fill="white"/>
<path d="M196.537 25.5479C194.339 25.5479 192.861 24.0064 192.861 21.7114C192.861 19.4165 194.339 17.8606 196.537 17.8606C198.41 17.8606 199.783 18.9844 199.962 20.6595H198.121C197.977 19.8621 197.383 19.3674 196.566 19.3674C195.467 19.3674 194.784 20.2655 194.784 21.7114C194.784 23.1574 195.467 24.041 196.566 24.041C197.387 24.041 197.933 23.5776 198.104 22.7346H199.965C199.825 24.3919 198.419 25.5479 196.537 25.5479Z" fill="white"/>
<path d="M206.256 25.377L204.002 22.2585L203.293 23.0449V25.377H201.385V14.9348H203.293V21.0662H203.315L206.085 18.0322H208.29L205.444 21.1981L208.474 25.377H206.256Z" fill="white"/>
<path d="M214.464 25.377V21.1406C214.464 20.0955 213.926 19.4959 212.988 19.4959C211.991 19.4959 211.42 20.147 211.42 21.2835V25.377H209.512V14.9348H211.42V19.3243C211.964 18.428 212.696 17.8758 213.828 17.8758C215.416 17.8758 216.365 18.9522 216.365 20.7559V25.377H214.464H214.464Z" fill="white"/>
<path d="M221.539 25.5479C219.314 25.5479 217.82 24.0064 217.82 21.7114C217.82 19.4165 219.314 17.8606 221.539 17.8606C223.763 17.8606 225.264 19.408 225.264 21.7114C225.264 24.0148 223.767 25.5479 221.539 25.5479ZM221.539 19.3742C220.448 19.3742 219.742 20.2917 219.742 21.7114C219.742 23.1312 220.447 24.0343 221.539 24.0343C222.63 24.0343 223.342 23.1447 223.342 21.7114C223.342 20.2781 222.634 19.3742 221.539 19.3742Z" fill="white"/>
<path d="M229.053 25.3769C227.392 25.3769 226.715 24.8137 226.715 23.432V14.9355H228.623V23.2325C228.623 23.7534 228.827 23.9563 229.352 23.9563H229.563V25.3777H229.054L229.053 25.3769Z" fill="white"/>
<path d="M173.727 25.5478C171.06 25.5478 169.518 24.2313 169.518 22.0505H171.443C171.501 23.2478 172.378 23.9336 173.741 23.9336C175.027 23.9336 175.857 23.3611 175.857 22.475C175.857 21.7351 175.285 21.3089 173.882 21.0036L172.765 20.761C170.718 20.3153 169.723 19.3801 169.723 17.9003C169.723 16.024 171.303 14.7632 173.656 14.7632C176.008 14.7632 177.484 15.9842 177.576 18.0322H175.713C175.609 17.0015 174.807 16.3774 173.662 16.3774C172.517 16.3774 171.724 16.96 171.724 17.7938C171.724 18.6275 172.485 18.9429 173.628 19.1932L174.646 19.4148C176.853 19.8807 177.837 20.7813 177.837 22.3329C177.837 24.3167 176.262 25.5487 173.727 25.5487V25.5478Z" fill="white"/>
<path d="M240.1 25.3771V20.8625C240.1 19.9712 239.575 19.4174 238.73 19.4174C237.885 19.4174 237.318 20.027 237.318 20.9335V25.3762H235.488V20.805C235.488 19.9746 234.95 19.4174 234.148 19.4174C233.286 19.4174 232.707 20.0642 232.707 21.0265V25.3771H230.799V18.0323H232.628V19.5349C233.053 18.543 233.963 17.875 235.001 17.875C236.039 17.875 236.842 18.4204 237.162 19.4858C237.59 18.4052 238.474 17.875 239.577 17.875C241.049 17.875 242 18.8965 242 20.4769V25.3771H240.099H240.1Z" fill="white"/>
</g>
<g clip-path="url(#clip1_314_413)">
<path d="M38.0096 6.33351H39.5583V7.52206H38.0096V10.2899C38.0096 10.9086 38.1908 11.1854 38.8828 11.1854H39.5583V12.4228H38.5368C37.3506 12.4228 36.6421 11.7227 36.6421 10.5667V7.53834H35.6371V6.34979H36.6421V4.91702H37.9931V6.33351H38.0096ZM0.0167476 0C0.0167476 0.276786 -0.164485 7.22899 0.741676 11.625C2.20801 18.8051 6.27749 25.2526 13.1314 31C20.0017 25.2526 24.0547 18.8051 25.5375 11.625C26.4437 7.24527 26.2624 0.276786 26.2624 0H0.0167476ZM50.6629 12.5368C51.6514 12.5368 52.4587 12.1297 53.0189 11.5273L52.0963 10.583C51.7668 10.9575 51.3054 11.2342 50.6629 11.2342C49.6084 11.2342 48.867 10.4527 48.867 9.39443C48.867 8.33614 49.6084 7.55462 50.6629 7.55462C51.3054 7.55462 51.7668 7.83141 52.0963 8.20588L53.0189 7.26155C52.4587 6.65914 51.6514 6.2521 50.6629 6.2521C48.8341 6.2521 47.4831 7.61975 47.4831 9.39443C47.4666 11.1691 48.8341 12.5368 50.6629 12.5368ZM45.0282 16.3629H46.3792V22.4685H45.0282V22.0126C44.5998 22.3545 44.0232 22.5662 43.3806 22.5662C41.5518 22.5662 40.2008 21.1985 40.2008 19.4238C40.2008 17.6492 41.5518 16.2815 43.3806 16.2815C44.0397 16.2815 44.5998 16.4932 45.0282 16.8351V16.3629ZM45.0282 18.3818C44.7152 17.8771 44.0726 17.5515 43.3806 17.5515C42.3262 17.5515 41.5848 18.3493 41.5848 19.4238C41.5848 20.4821 42.3262 21.2962 43.3806 21.2962C44.0726 21.2962 44.6987 20.9706 45.0282 20.4659V18.3818ZM33.4458 18.9517L32.9351 18.74C32.1278 18.4307 32.0454 18.1376 32.0454 17.9422C32.0454 17.6166 32.4408 17.4049 32.8198 17.4049C33.2316 17.4049 33.5282 17.5515 33.8248 17.8608L33.9071 17.9585L34.8133 17.177L34.7309 17.0793C34.2367 16.542 33.6271 16.2652 32.8198 16.2652C31.7818 16.2652 30.7273 16.9002 30.7273 17.9585C30.7273 18.7726 31.2546 19.3913 32.2925 19.7983L32.8198 19.9937C33.4788 20.2542 33.7259 20.4821 33.7259 20.8403C33.7259 21.1171 33.4129 21.3939 32.8857 21.3939C32.8692 21.3939 32.8362 21.3939 32.8198 21.3939C32.342 21.3776 31.7818 21.1497 31.4523 20.7752L31.3699 20.6775L30.3978 21.5079L30.5132 21.6056C31.2546 22.2731 31.963 22.5825 32.8198 22.5825C34.2861 22.5825 35.0604 21.6707 35.0604 20.7752C35.044 19.9611 34.5332 19.3587 33.4458 18.9517ZM38.0096 14.9301H36.6586V16.3629H35.6536V17.5515H36.6586V20.5961C36.6586 21.7521 37.367 22.4522 38.5533 22.4522H39.5748V21.2148H38.8828C38.1743 21.2148 38.0096 20.938 38.0096 20.3193V17.5515H39.5583V16.3629H38.0096V14.9301ZM33.5282 8.10819L32.8857 7.83141C32.0454 7.50578 31.6335 7.1313 31.6335 6.62658C31.6335 6.08929 32.2266 5.77994 32.7868 5.77994C33.3635 5.77994 33.7753 5.95903 34.1872 6.39863L35.1099 5.58456C34.5003 4.90074 33.7589 4.59139 32.7868 4.59139C31.5182 4.59139 30.299 5.40546 30.299 6.64286C30.299 7.65231 30.9251 8.40126 32.1937 8.90599L32.8527 9.16649C33.6765 9.5084 34.1213 9.85032 34.1213 10.4202C34.1213 10.8923 33.5941 11.3482 32.7868 11.3157C32.0619 11.2831 31.3864 10.8761 30.991 10.4039L29.9695 11.2668C30.6779 11.9832 31.5676 12.5205 32.8033 12.5205C34.5827 12.5205 35.4723 11.3971 35.4723 10.3062C35.4559 9.23162 34.6815 8.56408 33.5282 8.10819ZM59.4444 6.33351H57.8298L55.3584 9.08508V3.92384H54.0074V12.4391H55.3584V9.37815L58.0769 12.4228H59.741L56.8577 9.21534L59.4444 6.33351ZM74.602 12.4391H75.953V3.92384H74.602V12.4391ZM46.5934 9.37815C46.5934 11.1528 45.2259 12.5205 43.3971 12.5205C41.5518 12.5205 40.2008 11.1528 40.2008 9.37815C40.2008 7.60347 41.5518 6.23582 43.3971 6.23582C45.2259 6.23582 46.5934 7.60347 46.5934 9.37815ZM45.2094 9.37815C45.2094 8.31985 44.4516 7.50578 43.4136 7.50578C42.3592 7.50578 41.6178 8.30357 41.6178 9.37815C41.6178 10.4365 42.3592 11.2505 43.4136 11.2505C44.4516 11.2505 45.2094 10.4527 45.2094 9.37815ZM90.4021 8.93855L89.8914 8.72689C89.0841 8.41754 89.0017 8.12448 89.0017 7.9291C89.0017 7.60347 89.3971 7.39181 89.7761 7.39181C90.188 7.39181 90.4845 7.53834 90.7811 7.84769L90.8635 7.94538L91.7696 7.16387L91.6872 7.06618C91.193 6.52889 90.5834 6.2521 89.7761 6.2521C88.7381 6.2521 87.6837 6.88708 87.6837 7.94538C87.6837 8.75945 88.2109 9.37815 89.2488 9.78519L89.7761 9.98057C90.4351 10.2411 90.6822 10.469 90.6822 10.8272C90.6822 11.104 90.3692 11.3808 89.842 11.3808C89.8255 11.3808 89.7925 11.3808 89.7761 11.3808C89.2983 11.3645 88.7381 11.1366 88.4086 10.7621L88.3262 10.6644L87.3541 11.4947L87.4695 11.5924C88.2109 12.26 88.9193 12.5693 89.7761 12.5693C91.2424 12.5693 92.0167 11.6576 92.0167 10.7621C92.0003 9.948 91.4895 9.34559 90.4021 8.93855ZM84.2073 6.23582C83.6142 6.23582 82.7574 6.41492 82.1643 7.18015C81.7524 6.57773 81.1099 6.23582 80.2367 6.23582C79.66 6.23582 79.0669 6.4312 78.6385 6.90336V6.33351H77.271V12.4391H78.6385V8.54779C78.8527 7.88025 79.3635 7.50578 79.9731 7.50578C80.8627 7.50578 81.2582 8.20588 81.2582 8.87343V12.4228H82.6092V8.84086C82.6092 8.74317 82.6092 8.66177 82.5927 8.56408C82.8233 7.86397 83.3176 7.50578 83.9437 7.50578C84.8334 7.50578 85.2123 8.20588 85.2123 8.87343V12.4228H86.5633V8.84086C86.5798 7.29412 85.7231 6.23582 84.2073 6.23582ZM52.3104 13.9533H53.6615V22.4685H52.3104V22.0126C51.8821 22.3545 51.3054 22.5662 50.6629 22.5662C48.8341 22.5662 47.4831 21.1985 47.4831 19.4238C47.4831 17.6492 48.8341 16.2815 50.6629 16.2815C51.3219 16.2815 51.8821 16.4932 52.3104 16.8351V13.9533ZM52.3104 18.3818C51.9974 17.8771 51.3549 17.5515 50.6629 17.5515C49.6084 17.5515 48.867 18.3493 48.867 19.4238C48.867 20.4821 49.6084 21.2962 50.6629 21.2962C51.3549 21.2962 51.9809 20.9706 52.3104 20.4659V18.3818ZM73.4981 9.37815C73.4981 11.1528 72.1306 12.5205 70.3019 12.5205C68.4566 12.5205 67.1056 11.1528 67.1056 9.37815C67.1056 7.60347 68.4566 6.23582 70.3019 6.23582C72.1306 6.23582 73.4981 7.60347 73.4981 9.37815ZM72.0977 9.37815C72.0977 8.31985 71.3398 7.50578 70.3019 7.50578C69.2309 7.50578 68.506 8.30357 68.506 9.37815C68.506 10.4365 69.2474 11.2505 70.3019 11.2505C71.3398 11.2505 72.0977 10.4527 72.0977 9.37815ZM63.4809 6.23582C62.8384 6.23582 62.1794 6.44748 61.751 6.90336V3.92384H60.4V12.4391H61.751V8.59664C61.9816 7.89653 62.5089 7.52206 63.2173 7.52206C64.1235 7.52206 64.6178 8.22216 64.6178 8.88971V12.4391H65.9852V8.85714C66.0017 7.29412 65.0132 6.23582 63.4809 6.23582Z" fill="white"/>
<path d="M15.9143 5.06372C15.9143 4.75437 16.1615 4.51015 16.4745 4.51015C16.7875 4.51015 17.0347 4.75437 17.0347 5.06372C17.0347 5.37307 16.7875 5.61729 16.4745 5.61729C16.1779 5.63358 15.9143 5.37307 15.9143 5.06372ZM9.7854 5.63358C10.0984 5.63358 10.3456 5.38935 10.3456 5.08C10.3456 4.77066 10.0984 4.52643 9.7854 4.52643C9.47236 4.52643 9.20875 4.77066 9.20875 5.08C9.20875 5.38935 9.47236 5.63358 9.7854 5.63358ZM9.40646 19.3752V17.4865C9.06047 16.705 8.91219 15.7118 8.86276 15.1257C8.81333 14.5396 8.58268 9.11782 8.58268 9.11782C8.58268 9.11782 6.39141 10.4855 6.39141 12.6509C6.39141 13.5627 6.75388 14.507 7.49528 15.3862C8.33554 16.3631 8.74743 16.9981 8.74743 17.5842C8.74743 18.0889 8.41792 18.3657 7.97308 18.382C7.72594 18.3983 7.39643 18.1378 7.39643 18.1378C7.39643 18.1378 7.33053 18.4146 7.4129 18.6588C7.56119 19.1309 7.84127 19.2449 8.13783 19.2449C8.43439 19.2449 8.61563 19.1798 8.71448 19.0821C8.69801 19.1635 8.66505 19.4077 8.18726 19.4077C8.15431 19.5868 8.41792 19.7822 8.6321 19.7822C8.92866 19.7985 9.3076 19.6845 9.40646 19.3752ZM18.4516 7.91299C18.4516 7.91299 16.1944 7.48967 13.13 7.48967C10.049 7.48967 7.80832 7.91299 7.80832 7.91299L8.23669 8.75963C8.23669 8.75963 9.90073 8.38515 13.13 8.38515C16.3757 8.38515 18.0232 8.75963 18.0232 8.75963L18.4516 7.91299ZM16.3921 21.2475V18.3169C16.4086 18.3169 15.0082 19.8962 13.13 19.8962C10.9881 19.8962 9.86778 18.2843 9.86778 18.2843V21.2638C9.86778 22.257 9.25818 22.8106 9.25818 22.8106L10.2138 23.8689H16.0297L16.9853 22.8106C17.0017 22.7943 16.3921 22.2407 16.3921 21.2475ZM19.8685 12.6509C19.8685 10.4855 17.6772 9.11782 17.6772 9.11782C17.6772 9.11782 17.4466 14.5396 17.3971 15.1257C17.3477 15.7118 17.2159 16.705 16.8699 17.4865V19.3752C16.9688 19.6682 17.3477 19.7985 17.6113 19.7985C17.8255 19.7985 18.0726 19.6031 18.0562 19.424C17.5784 19.424 17.5454 19.1798 17.529 19.0984C17.6278 19.1961 17.809 19.2612 18.1056 19.2612C18.4022 19.2612 18.6822 19.1472 18.8305 18.6751C18.9129 18.4308 18.847 18.1541 18.847 18.1541C18.847 18.1541 18.5175 18.4146 18.2704 18.3983C17.8255 18.382 17.496 18.1052 17.496 17.6005C17.496 17.0144 17.9244 16.3794 18.7481 15.4025C19.506 14.5233 19.8685 13.579 19.8685 12.6509ZM13.13 7.06635C16.3098 7.06635 18.6493 7.53851 18.6493 7.53851L20.198 4.47759C20.198 4.47759 19.7367 4.16824 19.4237 4.16824C18.847 4.16824 18.7152 4.67297 18.7152 4.85206C18.7152 4.9986 18.7317 5.09629 18.8141 5.19397L18.8305 5.21026C18.9623 5.35679 18.9953 5.38935 18.9953 5.48704C18.9953 5.56845 18.9294 5.71498 18.7646 5.71498C18.6163 5.71498 18.5834 5.66614 18.5175 5.48704C18.4516 5.29166 18.2539 5.11257 17.9903 5.11257C17.7267 5.11257 17.4466 5.34051 17.4466 5.64986C17.4466 5.99177 17.7267 6.18715 17.9903 6.18715C18.1385 6.18715 18.2209 6.1383 18.2704 6.10574C18.3033 6.08946 18.3198 6.07318 18.3527 6.07318C18.3857 6.07318 18.4186 6.08946 18.4351 6.10574C18.4845 6.15458 18.501 6.23599 18.4845 6.3174C18.4351 6.54534 17.9903 6.90353 17.496 6.90353C16.7546 6.90353 16.2933 6.23599 16.2933 5.76383C16.0132 6.43137 15.3706 6.5779 14.9423 6.5779C13.756 6.5779 13.5254 5.53589 13.5254 5.2591C13.5254 5.08 13.5913 4.91719 13.6407 4.90091C13.6407 4.90091 13.6736 4.88463 13.7066 4.91719L13.756 4.96603C13.9043 5.09629 14.1679 5.34051 14.5469 5.34051C14.9752 5.34051 15.4036 5.03116 15.4036 4.51015C15.4036 3.95658 14.9752 3.66351 14.5469 3.66351C14.2009 3.66351 13.9867 3.85889 13.8549 3.98914C13.8055 4.03799 13.756 4.08683 13.7231 4.08683C13.6572 4.08683 13.6077 4.07055 13.5748 4.02171C13.5418 3.98914 13.5254 3.95658 13.5254 3.90774C13.5254 3.90774 13.5254 3.89145 13.5254 3.87517C13.5254 3.84261 13.5748 3.79376 13.6242 3.74492C13.7396 3.63095 13.9043 3.46813 13.9043 3.1425C13.9043 2.78431 13.6077 2.39355 13.1629 2.39355C12.7181 2.39355 12.4215 2.78431 12.4215 3.1425C12.4215 3.45185 12.5863 3.63095 12.7016 3.74492C12.751 3.79376 12.8004 3.84261 12.8004 3.87517C12.8004 3.89145 12.8004 3.89145 12.8004 3.90774C12.8004 3.95658 12.784 3.98914 12.751 4.02171C12.7181 4.05427 12.6522 4.08683 12.6027 4.08683C12.5698 4.08683 12.5204 4.03799 12.4709 3.98914C12.3391 3.85889 12.1414 3.66351 11.779 3.66351C11.3506 3.66351 10.9222 3.95658 10.9222 4.51015C10.9222 5.03116 11.3671 5.34051 11.779 5.34051C12.1579 5.34051 12.4215 5.09629 12.5698 4.96603L12.6192 4.91719C12.6522 4.88463 12.6851 4.88463 12.6851 4.90091C12.7345 4.93347 12.8004 5.08 12.8004 5.2591C12.8004 5.53589 12.5533 6.5779 11.3835 6.5779C10.9387 6.5779 10.3126 6.43137 10.0325 5.76383C10.0325 6.23599 9.58769 6.90353 8.82981 6.90353C8.33554 6.90353 7.8907 6.54534 7.84127 6.3174C7.8248 6.23599 7.84127 6.15458 7.8907 6.10574C7.90717 6.08946 7.92365 6.07318 7.9566 6.07318C7.98955 6.07318 8.00603 6.08946 8.03898 6.10574C8.08841 6.1383 8.15431 6.18715 8.31906 6.18715C8.58268 6.18715 8.86276 5.99177 8.86276 5.64986C8.86276 5.32423 8.5662 5.11257 8.31906 5.11257C8.05545 5.11257 7.87422 5.30795 7.79184 5.48704C7.72594 5.66614 7.69299 5.71498 7.54471 5.71498C7.37995 5.71498 7.31405 5.58473 7.31405 5.48704C7.31405 5.38935 7.347 5.35679 7.47881 5.21026L7.49528 5.19397C7.57766 5.09629 7.59414 4.98232 7.59414 4.85206C7.59414 4.67297 7.46233 4.16824 6.88568 4.16824C6.55617 4.16824 6.11133 4.47759 6.11133 4.47759L7.66004 7.53851C7.62709 7.53851 9.95015 7.06635 13.13 7.06635ZM13.13 8.84103C15.4365 8.84103 16.8864 9.03641 17.15 9.08526C17.1335 9.50858 16.9853 13.0091 16.9688 14.0023C16.9688 14.4093 16.8534 15.777 16.7546 16.298C16.5239 17.4377 15.5024 19.3589 13.13 19.3589C10.7739 19.3589 9.73597 17.4377 9.50531 16.298C9.40646 15.777 9.29113 14.4093 9.29113 14.0023C9.27465 13.0254 9.12637 9.50858 9.1099 9.08526C9.37351 9.03641 10.8234 8.84103 13.13 8.84103ZM10.7575 9.94818C10.7575 9.99702 10.8069 10.0296 10.9387 10.0621C11.2682 10.1436 11.746 10.3227 12.092 10.6646C12.4545 11.0228 12.6027 11.3972 12.6357 11.6252C12.6686 11.7554 12.7016 11.8043 12.751 11.8043C12.8004 11.8043 12.8334 11.7554 12.8663 11.6415C12.9652 11.3321 12.9817 10.8762 12.5533 10.3878C12.1085 9.88305 11.3835 9.85049 11.1858 9.85049C11.1034 9.85049 11.0211 9.85049 10.9387 9.86677C10.8234 9.86677 10.7575 9.89933 10.7575 9.94818ZM10.9387 11.9508C11.6307 11.9508 12.0426 11.7229 12.0426 11.5112C12.0426 11.3158 11.6636 10.746 10.9387 10.746C10.6751 10.746 10.4774 10.7948 10.3291 10.9251C10.2632 10.9739 10.2302 11.039 10.2467 11.0879C10.2632 11.1204 10.2797 11.1367 10.362 11.1367C10.5927 11.1367 10.741 11.3484 10.741 11.4949C10.741 11.6577 10.6257 11.7229 10.5268 11.7229C10.4444 11.7229 10.3785 11.7717 10.3785 11.8205C10.3785 11.8368 10.3785 11.8857 10.4609 11.902C10.6092 11.9508 10.7575 11.9508 10.9387 11.9508ZM14.1679 17.1934C14.1514 17.1609 14.1185 17.1283 14.0691 17.1283H12.2073C12.1579 17.1283 12.1085 17.1446 12.1085 17.1934C12.092 17.226 12.1085 17.2749 12.1579 17.3074C12.2238 17.3563 12.6027 17.6005 12.6851 17.6493C12.751 17.6982 12.784 17.6982 12.8828 17.6982H13.41C13.4924 17.6982 13.5418 17.6982 13.6077 17.6493C13.6901 17.6005 14.0691 17.34 14.135 17.3074C14.1514 17.2911 14.1844 17.2423 14.1679 17.1934ZM14.5963 16.5748C14.5304 16.5422 14.3986 16.4771 14.2832 16.4282C14.0526 16.3142 13.7725 16.184 13.6901 16.1514C13.6077 16.1189 13.5748 16.1026 13.4924 16.1026H12.784C12.7016 16.1026 12.6686 16.1026 12.5863 16.1514C12.4545 16.2166 11.8778 16.4933 11.6801 16.591C11.6142 16.6236 11.5812 16.6724 11.5977 16.7213C11.5977 16.7538 11.6307 16.7864 11.713 16.7864H14.5963C14.6622 16.7864 14.6951 16.7538 14.7116 16.7213C14.6951 16.6562 14.6622 16.591 14.5963 16.5748ZM16.6887 11.5112C16.6887 11.3158 16.3098 10.746 15.5848 10.746C15.3212 10.746 15.1235 10.7948 14.9752 10.9251C14.9093 10.9739 14.8764 11.039 14.8928 11.0879C14.9093 11.1204 14.9258 11.1367 15.0082 11.1367C15.2388 11.1367 15.3871 11.3484 15.3871 11.4949C15.3871 11.6577 15.2718 11.7229 15.1729 11.7229C15.0906 11.7229 15.0247 11.7717 15.0247 11.8205C15.0247 11.8368 15.0247 11.8857 15.107 11.902C15.2553 11.9345 15.4036 11.9508 15.5848 11.9508C16.2768 11.9508 16.6887 11.7229 16.6887 11.5112ZM13.13 14.507C13.0146 14.507 12.9322 14.5396 12.8499 14.6047C12.7181 14.7187 12.3721 15.0117 12.3226 15.0769C12.2897 15.1094 12.2897 15.142 12.2897 15.1745C12.3062 15.2071 12.3391 15.2397 12.438 15.2397H14.2832C14.3492 15.2397 14.3986 15.2234 14.4151 15.1908C14.4315 15.1583 14.4151 15.1257 14.3656 15.0769C14.2668 14.9792 13.9373 14.6698 13.8878 14.621V11.8857C13.8878 11.1042 14.0691 10.3064 15.3706 10.3064H16.112C16.6228 10.3064 16.8864 9.86677 16.8864 9.86677L16.9029 9.83421H16.8535C16.8535 9.83421 16.2603 9.83421 15.9967 9.83421C15.8814 9.83421 15.7825 9.83421 15.6672 9.83421C15.5189 9.83421 15.3542 9.83421 15.0906 9.83421C14.2009 9.83421 13.5089 10.5832 13.5089 11.56V14.2791C13.5089 14.4419 13.443 14.507 13.3112 14.507H13.13Z" fill="#3A29A6"/>
</g>
<g clip-path="url(#clip2_314_413)">
<path d="M287.173 6.36035V11.3463L291.548 6.36035H297.207L292.083 11.4026L297.797 19.6808H292.193L288.753 14.6456L287.149 16.2301V19.6773H282.818V6.36035H287.173Z" fill="white"/>
<path d="M298.984 6.36035H303.646V13.9273C303.646 14.7618 303.719 15.3639 304.019 15.8674C304.609 16.9061 305.792 17.1913 306.734 17.1913C307.956 17.1913 308.646 16.7653 308.97 16.4554C309.771 15.7019 309.781 14.4977 309.781 13.8533V6.36035H314.443V13.3427C314.443 14.9132 314.405 16.554 313.687 17.6843C312.266 19.9484 308.822 20.1526 306.752 20.1526C303.85 20.1526 302.204 19.7371 301.224 19.135C299.191 18.1139 298.984 16.0012 298.984 14.9237V6.36035Z" fill="white"/>
<path d="M322.118 6.36035V16.4413H328.781V19.6843H317.422V6.36035H322.115H322.118Z" fill="white"/>
<path d="M341.312 6.34253V9.34605H336.691V19.6841H331.971V9.34605H327.33V6.34253H341.312Z" fill="white"/>
<path d="M343.312 6.36035H347.974V13.9273C347.974 14.7618 348.047 15.3639 348.34 15.8674C348.933 16.9061 350.114 17.1913 351.062 17.1913C352.28 17.1913 352.981 16.7653 353.298 16.4554C354.092 15.7019 354.109 14.4977 354.109 13.8533V6.36035H358.774V13.3427C358.774 14.9132 358.733 16.554 358.012 17.6843C356.59 19.9484 353.147 20.1526 351.076 20.1526C348.174 20.1526 346.528 19.7371 345.548 19.135C343.509 18.1139 343.312 16.0012 343.312 14.9237V6.36035Z" fill="white"/>
<path d="M361.729 6.36035H371.324C372.467 6.385 373.878 6.39908 374.965 7.21246C375.91 7.94838 376.5 9.2512 376.5 10.5892C376.5 11.5364 376.204 12.4625 375.665 13.1209C374.927 14.0188 374.04 14.2125 373.491 14.3674L376.759 19.6843H371.583L368.902 14.8427H366.411V19.6843H361.729V6.36035ZM366.411 11.8146H369.913C370.641 11.8146 371.825 11.8005 371.825 10.6068C371.825 10.3005 371.732 9.98359 371.494 9.75824C371.121 9.42021 370.641 9.38148 370.289 9.38148H366.411V11.8146Z" fill="white"/>
<path d="M379.5 6.36035H388.375C389.524 6.385 390.908 6.39908 392.043 7.44134C392.467 7.81458 393.202 8.68782 393.202 10.2864C393.202 13.4765 390.562 13.9132 389.693 14.0611L394.496 19.6808H392.07L387.661 14.3639H381.353V19.6808H379.5V6.36035ZM381.332 7.96951V12.8005H387.785C388.799 12.8005 390.093 12.7829 390.832 11.7794C391.17 11.3498 391.273 10.8357 391.273 10.3674C391.273 9.84979 391.152 9.34627 390.887 8.9519C390.297 7.98711 389.351 7.98711 388.506 7.97303H381.332V7.96951Z" fill="white"/>
<path d="M401.99 6.34263H403.946L410.64 19.6807H408.518L406.924 16.399H398.901L397.307 19.6807H395.24L401.996 6.34263H401.99ZM403.377 9.25108C403.277 9.02572 403.17 8.79333 403.08 8.5715C403.021 8.39896 402.969 8.22995 402.935 8.05741C402.876 8.22995 402.814 8.41305 402.745 8.59967C402.655 8.84967 402.542 9.0715 402.431 9.3215L399.674 14.8532H406.123L403.377 9.24756V9.25108ZM405.019 3.94826C405.019 4.93065 404.222 5.74051 402.907 5.74051C401.337 5.74051 400.727 4.75812 400.727 3.90601C400.727 2.79333 401.703 2.17361 402.89 2.15601C404.188 2.15601 405.019 2.92361 405.019 3.94826ZM401.838 3.94826C401.838 4.45178 402.304 4.83206 402.89 4.83206C403.522 4.83206 403.908 4.42009 403.908 3.94826C403.908 3.47643 403.522 3.0222 402.856 3.03981C402.152 3.05741 401.838 3.52572 401.838 3.94826Z" fill="white"/>
<path d="M412.842 6.36035H419.339C420.83 6.36035 422.59 6.385 424.325 7.8357C425.378 8.71951 426.492 10.3639 426.492 12.9308C426.492 15.4977 425.422 16.9836 424.66 17.7723C422.828 19.6244 420.278 19.6808 418.08 19.6808H412.842V6.36035ZM414.712 7.92725V18.0787H418.521C420.164 18.0787 422.196 18.0223 423.587 16.216C424.325 15.2336 424.605 14.0047 424.605 12.8709C424.605 11.0787 423.921 9.86739 423.231 9.18782C422 7.94486 420.537 7.94486 419.35 7.92725H414.712Z" fill="white"/>
<path d="M428.904 6.36035H440.967V8.00472H430.754V11.9871H440.681V13.5505H430.754V18.0399H441.419V19.6808H428.904V6.36035Z" fill="white"/>
<path d="M443.297 6.36035H455.815V7.94486H450.471V19.6808H448.618V7.94486H443.297V6.36035Z" fill="white"/>
</g>
<defs>
<clipPath id="clip0_314_413">
<rect width="107" height="24" fill="white" transform="translate(135 1.54785)"/>
</clipPath>
<clipPath id="clip1_314_413">
<rect width="92" height="31" fill="white"/>
</clipPath>
<clipPath id="clip2_314_413">
<rect width="173" height="18" fill="white" transform="translate(282.818 2.15601)"/>
</clipPath>
</defs>
</svg>
